<?xml version="1.0" standalone="no"?>
<!DOCTYPE svg PUBLIC "-//W3C//DTD SVG 20010904//EN" "http://www.w3.org/TR/2001/REC-SVG-20010904/DTD/svg10.dtd">
<!-- Created using Krita: https://krita.org -->
<svg xmlns="http://www.w3.org/2000/svg" 
    xmlns:xlink="http://www.w3.org/1999/xlink"
    xmlns:krita="http://krita.org/namespaces/svg/krita"
    xmlns:sodipodi="http://sodipodi.sourceforge.net/DTD/sodipodi-0.dtd"
    width="494.4pt"
    height="494.4pt"
    viewBox="0 0 494.4 494.4">
<defs/>
<path id="shape1" transform="translate(72.3054438451566, 51.2548216205627)" fill="none" stroke="#4d2689" stroke-width="6.2909064" stroke-linecap="square" stroke-linejoin="bevel" d="M147.369 262.319C217.878 335.344 280.137 343.089 334.146 285.551C341.437 276.831 346.584 264.914 349.586 249.799C350.808 220.025 346.516 206.286 336.709 208.583C328.75 204.197 312.45 227.478 287.809 278.424C217.452 423.893 28.1048 405.357 52.2675 355.375C68.376 322.053 61.0036 301.166 30.1503 292.716L22.6992 272.416L22.6992 272.416C48.3167 264.692 50.0198 258.404 27.8085 253.553C5.59724 248.701 -3.30856 235.743 1.09112 214.677C44.4492 203.386 54.384 174.82 30.8954 128.979C7.40678 83.1378 19.8252 40.1449 68.1507 0C144.486 138.786 228.298 196.974 319.588 174.563" sodipodi:nodetypes="cccczzccczczcc"/><path id="shape0" transform="translate(119.01620720068, 339.986670385442)" fill="none" stroke="#4d2689" stroke-width="6.2909064" stroke-linecap="square" stroke-linejoin="bevel" d="M0 0C59.5518 13.5771 109.801 18.9883 126.987 0.87352" sodipodi:nodetypes="cc"/><path id="shape2" transform="translate(100.262880928865, 91.7330486501988)" fill="none" stroke="#4d2689" stroke-width="6.2909064" stroke-linecap="square" stroke-linejoin="bevel" d="M0 8.11508C9.76624 -9.96792 40.8596 2.45801 93.2799 42.5129" sodipodi:nodetypes="cc"/><path id="shape01" transform="translate(95.440030385997, 109.342917782384)" fill="none" stroke="#4d2689" stroke-width="6.2909064" stroke-linecap="square" stroke-linejoin="bevel" d="M0 10.8613C26.533 2.02895 46.8239 -14.2441 99.244 25.8108" sodipodi:nodetypes="cc"/><path id="shape11" transform="translate(177.456379053526, 203.28513466187)" fill="none" stroke="#4d2689" stroke-width="6.2909064" stroke-linecap="square" stroke-linejoin="bevel" d="M0 0C32.1056 10.6346 52.7282 20.9116 61.8677 30.8309" sodipodi:nodetypes="cc"/><path id="shape21" transform="translate(234.97825101055, 233.794185164433)" fill="none" stroke="#4d2689" stroke-width="6.2909064" stroke-linecap="square" stroke-linejoin="bevel" d="M0 8.33515C3.43022 1.43644 9.82103 -1.1799 19.1724 0.48611" sodipodi:nodetypes="cc"/><path id="shape3" transform="translate(183.272450198096, 172.665240135006)" fill="none" stroke="#4d2689" stroke-width="6.2909064" stroke-linecap="square" stroke-linejoin="bevel" d="M80.1492 28.5625C44.851 9.58983 18.4546 -1.77516 0 0.227502" sodipodi:nodetypes="cc"/><path id="shape4" transform="translate(183.393165899582, 165.604331465593)" fill="none" stroke="#4d2689" stroke-width="6.2909064" stroke-linecap="square" stroke-linejoin="bevel" d="M0 6.00485C16.4878 -8.37454 42.7976 3.69853 80.8493 35.504" sodipodi:nodetypes="cc"/>
</svg>
