<?xml version="1.0" standalone="no"?>
<!DOCTYPE svg PUBLIC "-//W3C//DTD SVG 20010904//EN" "http://www.w3.org/TR/2001/REC-SVG-20010904/DTD/svg10.dtd">
<!-- Created using Krita: https://krita.org -->
<svg xmlns="http://www.w3.org/2000/svg" 
    xmlns:xlink="http://www.w3.org/1999/xlink"
    xmlns:krita="http://krita.org/namespaces/svg/krita"
    xmlns:sodipodi="http://sodipodi.sourceforge.net/DTD/sodipodi-0.dtd"
    width="494.4pt"
    height="494.4pt"
    viewBox="0 0 494.4 494.4">
<defs/>
<ellipse id="shape0" transform="translate(47.2800232075389, 46.0799985483301)" rx="199.919976792461" ry="201.12000145167" cx="199.919976792461" cy="201.12000145167" fill="#ffffff" fill-rule="evenodd" stroke="#d6e5de" stroke-width="36" stroke-linecap="square" stroke-linejoin="bevel"/><path id="shape1" transform="translate(72.3054438451566, 51.2548216205627)" fill="none" stroke="#4d2689" stroke-width="6.2909064" stroke-linecap="square" stroke-linejoin="bevel" d="M147.369 262.319C217.878 335.344 280.137 343.089 334.146 285.551C341.437 276.831 346.584 264.914 349.586 249.799C350.808 220.025 346.516 206.286 336.709 208.583C328.75 204.197 312.45 227.478 287.809 278.424C217.452 423.893 28.1048 405.357 52.2675 355.375C68.376 322.053 61.0036 301.166 30.1503 292.716L22.6992 272.416L22.6992 272.416C48.3167 264.692 50.0198 258.404 27.8085 253.553C5.59724 248.701 -3.30856 235.743 1.09112 214.677C44.4492 203.386 54.384 174.82 30.8954 128.979C7.40678 83.1378 19.8252 40.1449 68.1507 0C144.486 138.786 228.298 196.974 319.588 174.563" sodipodi:nodetypes="cccczzccczczcc"/><path id="shape01" transform="translate(119.01620720068, 339.986670385442)" fill="none" stroke="#4d2689" stroke-width="6.2909064" stroke-linecap="square" stroke-linejoin="bevel" d="M0 0C59.5518 13.5771 109.801 18.9883 126.987 0.87352" sodipodi:nodetypes="cc"/><path id="shape2" transform="translate(100.262880928865, 91.7330486501988)" fill="none" stroke="#4d2689" stroke-width="6.2909064" stroke-linecap="square" stroke-linejoin="bevel" d="M0 8.11508C9.76624 -9.96792 40.8596 2.45801 93.2799 42.5129" sodipodi:nodetypes="cc"/><path id="shape011" transform="translate(95.440030385997, 109.342917782384)" fill="none" stroke="#4d2689" stroke-width="6.2909064" stroke-linecap="square" stroke-linejoin="bevel" d="M0 10.8613C26.533 2.02895 46.8239 -14.2441 99.244 25.8108" sodipodi:nodetypes="cc"/><path id="shape11" transform="translate(177.456379053526, 203.28513466187)" fill="none" stroke="#4d2689" stroke-width="6.2909064" stroke-linecap="square" stroke-linejoin="bevel" d="M0 0C32.1056 10.6346 52.7282 20.9116 61.8677 30.8309" sodipodi:nodetypes="cc"/><path id="shape21" transform="translate(234.97825101055, 233.794185164433)" fill="none" stroke="#4d2689" stroke-width="6.2909064" stroke-linecap="square" stroke-linejoin="bevel" d="M0 8.33515C3.43022 1.43644 9.82103 -1.1799 19.1724 0.48611" sodipodi:nodetypes="cc"/><path id="shape3" transform="translate(183.272450198096, 172.665240135006)" fill="none" stroke="#4d2689" stroke-width="6.2909064" stroke-linecap="square" stroke-linejoin="bevel" d="M80.1492 28.5625C44.851 9.58983 18.4546 -1.77516 0 0.227502" sodipodi:nodetypes="cc"/><path id="shape4" transform="translate(183.393165899582, 165.604331465593)" fill="none" stroke="#4d2689" stroke-width="6.2909064" stroke-linecap="square" stroke-linejoin="bevel" d="M0 6.00485C16.4878 -8.37454 42.7976 3.69853 80.8493 35.504" sodipodi:nodetypes="cc"/><ellipse id="shape02" transform="matrix(0.80345110364601 0.595370745040447 -0.595370745040447 0.80345110364601 347.647435276762 177.756240661626)" rx="14.710691129421" ry="38.4496415272997" cx="14.710691129421" cy="38.4496415272997" fill="#d4dc18" fill-rule="evenodd" stroke="#82d322" stroke-width="4.8" stroke-linecap="square" stroke-linejoin="bevel"/><path id="shape12" transform="translate(298.566237088358, 190.059499928684)" fill="#d4dc18" fill-rule="evenodd" stroke="#82d322" stroke-width="4.8" stroke-linecap="square" stroke-linejoin="miter" stroke-miterlimit="2" d="M0 76.3257L59.3671 0" sodipodi:nodetypes="cc"/><path id="shape22" transform="translate(321.056756644015, 191.535661417116)" fill="#d4dc18" fill-rule="evenodd" stroke="#82d322" stroke-width="6.2909064" stroke-linecap="square" stroke-linejoin="bevel" d="M0 25.7132L1.83725 40.4492L23.2443 39.278L30.3345 27.5232L13.4611 27.5517L8.75704 13.7402L17.6028 5.87028L22.0171 18.3678L36.0271 17.8251L39.3336 8.1127L28.5108 9.51242L24.3521 0" sodipodi:nodetypes="cccccccccccc"/><ellipse id="shape012" transform="matrix(0.686485579581673 0.727143417096263 -0.727143417096263 0.686485579581673 456.968556390633 146.862261535328)" rx="14.710691129421" ry="38.4496415272997" cx="14.710691129421" cy="38.4496415272997" fill="#d4dc18" stroke="#82d322" stroke-width="4.8" stroke-linecap="square" stroke-linejoin="bevel"/><path id="shape111" transform="matrix(0.984477514539816 0.175510749999858 -0.175510749999858 0.984477514539816 406.330822005753 150.331911655748)" fill="#d4dc18" stroke="#82d322" stroke-width="4.8" stroke-linecap="square" stroke-linejoin="miter" stroke-miterlimit="2" d="M0 75.7444L59.5287 0" sodipodi:nodetypes="cc"/><path id="shape211" transform="matrix(0.984477514539816 0.175510749999858 -0.175510749999858 0.984477514539816 428.37219470898 155.760841482653)" fill="#d4dc18" stroke="#82d322" stroke-width="6.2909064" stroke-linecap="square" stroke-linejoin="bevel" d="M0 25.7132L1.83725 40.4492L23.2443 39.278L30.3345 27.5232L13.4611 27.5517L8.75704 13.7402L17.6028 5.87028L22.0171 18.3678L36.0271 17.8251L39.3336 8.1127L28.5108 9.51242L24.3521 0" sodipodi:nodetypes="cccccccccccc"/><ellipse id="shape021" transform="matrix(0.80345110364601 0.595370745040447 -0.595370745040447 0.80345110364601 402.811499736687 79.4991675335784)" rx="14.710691129421" ry="38.4496415272997" cx="14.710691129421" cy="38.4496415272997" fill="#d4dc18" stroke="#82d322" stroke-width="4.8" stroke-linecap="square" stroke-linejoin="bevel"/><path id="shape121" transform="translate(353.568749742405, 91.8024268006359)" fill="#d4dc18" stroke="#82d322" stroke-width="4.8" stroke-linecap="square" stroke-linejoin="miter" stroke-miterlimit="2" d="M0 75.7444L59.5287 0" sodipodi:nodetypes="cc"/><path id="shape221" transform="translate(376.220821103941, 93.2785882890685)" fill="#d4dc18" stroke="#82d322" stroke-width="6.2909064" stroke-linecap="square" stroke-linejoin="bevel" d="M0 25.7132L1.83725 40.4492L23.2443 39.278L30.3345 27.5232L13.4611 27.5517L8.75704 13.7402L17.6028 5.87028L22.0171 18.3678L36.0271 17.8251L39.3336 8.1127L28.5108 9.51242L24.3521 0" sodipodi:nodetypes="cccccccccccc"/><ellipse id="shape03" transform="matrix(0.925350952664943 0.379111612064423 -0.379111612064423 0.925350952664943 233.904374116967 66.7015992340161)" rx="8.52" ry="6.70632498584898" cx="8.52" cy="6.70632498584898" fill="#d00000" fill-rule="evenodd" stroke="#d00000" stroke-width="6.2909064" stroke-linecap="square" stroke-linejoin="bevel"/><ellipse id="shape5" transform="matrix(0.982449145308818 -0.186530632556623 0.186530632556623 0.982449145308818 131.704767185155 39.4911865749401)" rx="39.0783015479903" ry="40.9754726498048" cx="39.0783015479903" cy="40.9754726498048" fill="#f1e2c5" fill-rule="evenodd" stroke="#4d2689" stroke-width="6.2909064" stroke-linecap="square" stroke-linejoin="bevel"/><path id="shape6" transform="matrix(0.982449145308818 -0.186530632556623 0.186530632556623 0.982449145308818 173.765871794148 51.3551750914138)" fill="none" stroke="#4d2689" stroke-width="6.2909064" stroke-linecap="square" stroke-linejoin="miter" stroke-miterlimit="2" d="M0 27.4552L1.55896 0" sodipodi:nodetypes="cc"/><path id="shape0111" transform="matrix(0.982449145308818 -0.186530632556623 0.186530632556623 0.982449145308818 179.947229472133 79.2139124690085)" fill="none" stroke="#4d2689" stroke-width="6.2909064" stroke-linecap="square" stroke-linejoin="miter" stroke-miterlimit="2" d="M13.399 6.7253L0 0" sodipodi:nodetypes="cc"/><path id="shape7" transform="matrix(0.982449145308818 -0.186530632556623 0.186530632556623 0.982449145308818 205.28912897414 78.3205178855056)" fill="none" stroke="#4d2689" stroke-width="6.2909064" stroke-linecap="square" stroke-linejoin="miter" stroke-miterlimit="2" d="M10.8209 0.796646L0 0" sodipodi:nodetypes="cc"/><path id="shape8" transform="matrix(0.982449145308818 -0.186530632556623 0.186530632556623 0.982449145308818 173.046666542863 32.0898490229736)" fill="none" stroke="#4d2689" stroke-width="6.2909064" stroke-linecap="square" stroke-linejoin="miter" stroke-miterlimit="2" d="M0.774896 0L0 10.4311" sodipodi:nodetypes="cc"/><path id="shape9" transform="matrix(0.982449145308818 -0.186530632556623 0.186530632556623 0.982449145308818 178.091277033182 101.982536771754)" fill="none" stroke="#4d2689" stroke-width="6.2909064" stroke-linecap="square" stroke-linejoin="miter" stroke-miterlimit="2" d="M0 11.1282L1.60514 0" sodipodi:nodetypes="cc"/><path id="shape10" transform="translate(271.66857886615, 52.5464763629236)" fill="#efffc9" fill-rule="evenodd" stroke="#4d2689" stroke-width="6.2909064" stroke-linecap="square" stroke-linejoin="bevel" d="M4.27601 22.0717L6.75338 7.60147L21.414 9.06682L23.3823 0L35.7352 4.48762L32.613 12.4249L42.5564 17.0346L39.8076 31.8102L47.3415 34.344L43.0655 51.8671L36.4479 48.3258L31.0859 63.193L0 51.2565L0.10181 51.5618L2.23981 37.0305L8.38233 39.8696L12.6923 32.4207L10.1131 23.8729L4.27601 22.0717" sodipodi:nodetypes="ccccccccccccccccccc"/><path id="shape1111" transform="translate(324.299189038511, 54.4914893707287)" fill="#bcf51c" fill-rule="evenodd" stroke="#4d2689" stroke-width="6.2909064" stroke-linecap="square" stroke-linejoin="bevel" d="M0 5.38402L1.74687 25.6063L16.4091 24.3955L17.1823 42.2736L3.86602 46.7302L6.58655 62.0579L24.6852 60.5638L26.1457 69.5544L40.6361 68.2405L39.777 61.2336L53.6374 57.962L52.8642 39.002L58.0475 42.3509L65.2641 41.475L67.1255 30.81L61.7131 18.7282L54.7543 18.9085L51.4896 25.3487L48.3395 0L38.3165 0.334891L36.2547 10.9226L28.7804 13.9366L20.3324 9.71185L19.7596 2.2412L0 5.38402" sodipodi:nodetypes="ccccccccccccccccccccccccc"/><path id="shape1211" transform="matrix(0.975358119948873 0.220627599927569 -0.220627599927569 0.975358119948873 227.891872803946 65.0280677471402)" fill="none" stroke="#4d2689" stroke-width="6.2909064" stroke-linecap="square" stroke-linejoin="bevel" d="M43.44 7.78897C43.44 0.83018 31.9537 -2.66454e-15 19.9581 0C7.9625 2.66454e-15 1.46899e-15 0.83018 0 7.78897C-1.46899e-15 14.7478 11.8106 17.0119 23.8063 17.0119C35.8019 17.0119 43.44 14.7478 43.44 7.78897Z" sodipodi:nodetypes="ccccc"/><rect id="shape13" transform="matrix(0.954337373916316 0.298730943737869 -0.298730943737869 0.954337373916316 230.788464641379 101.996201983523)" fill="#efffc9" fill-rule="evenodd" stroke="#4d2689" stroke-width="6.2909064" stroke-linecap="square" stroke-linejoin="bevel" width="76.4189564825341" height="92.8988324103319"/><path id="shape14" transform="translate(239.055214718291, 131.483569803653)" fill="none" stroke="#4d2689" stroke-width="6.2909064" stroke-linecap="square" stroke-linejoin="bevel" d="M0 0C0.661349 3.39968 4.55523 5.2022 11.6816 5.40755C22.3713 5.71558 34.0515 6.60543 36.6006 13.9296" sodipodi:nodetypes="czc"/><path id="shape0211" transform="translate(228.8997, 154.535668998592)" fill="none" stroke="#4d2689" stroke-width="6.2909064" stroke-linecap="square" stroke-linejoin="bevel" d="M0 0C0.661349 3.39968 4.55523 5.2022 11.6816 5.40755C22.3713 5.71558 34.0515 6.60543 36.6006 13.9296" sodipodi:nodetypes="czc"/><path id="shape031" transform="translate(222.96400996535, 175.790631266654)" fill="none" stroke="#4d2689" stroke-width="6.2909064" stroke-linecap="square" stroke-linejoin="bevel" d="M0 0C0.661349 3.39968 4.55523 5.2022 11.6816 5.40755C22.3713 5.71558 34.0515 6.60543 36.6006 13.9296" sodipodi:nodetypes="czc"/><path id="shape15" transform="translate(262.228933795664, 141.723491657701)" fill="#ffffff" fill-rule="evenodd" stroke="#4d2689" stroke-width="6.2909064" stroke-linecap="square" stroke-linejoin="bevel" d="M51.5391 0L6.67466 35.8298L0 47.1097L17.0201 46.0602L59.0177 12.9109L51.5391 0" sodipodi:nodetypes="cccccc"/>
</svg>
